<?xml version="1.0" standalone="no"?>
<!DOCTYPE svg PUBLIC "-//W3C//DTD SVG 20010904//EN"
 "http://www.w3.org/TR/2001/REC-SVG-20010904/DTD/svg10.dtd">
<svg version="1.0" xmlns="http://www.w3.org/2000/svg"
 width="512.000000pt" height="512.000000pt" viewBox="0 0 512.000000 512.000000"
 preserveAspectRatio="xMidYMid meet">

<g transform="translate(0.000000,512.000000) scale(0.100000,-0.100000)"
fill="#000000" stroke="none">
<path d="M2340 5090 c-513 -50 -950 -217 -1360 -523 -133 -99 -387 -356 -496
-502 -214 -286 -342 -552 -437 -905 l-42 -155 -3 -419 -3 -420 32 -150 c90
-430 287 -805 613 -1168 362 -403 875 -699 1411 -815 130 -28 131 -28 515 -28
l385 0 120 29 c473 112 828 294 1199 615 166 143 384 400 503 592 139 224 252
505 313 780 l30 134 0 388 0 389 -30 131 c-119 520 -353 944 -711 1293 -214
208 -422 355 -669 476 -252 124 -524 206 -800 244 -134 18 -447 25 -570 14z
m519 -146 c200 -24 436 -82 611 -151 87 -34 301 -141 386 -194 148 -90 361
-260 473 -378 154 -162 339 -415 327 -447 -3 -7 0 -13 6 -11 16 3 88 -134 83
-158 -3 -11 -2 -14 1 -7 9 20 36 -37 29 -62 -4 -14 -3 -17 3 -8 13 19 31 -27
25 -64 -3 -16 -2 -26 2 -22 12 12 35 -19 28 -38 -4 -11 -3 -15 4 -11 16 10 22
-15 9 -35 -7 -12 -6 -24 2 -43 7 -15 8 -24 2 -20 -5 3 -10 2 -10 -4 0 -18 21
-23 37 -9 10 8 14 8 10 1 -4 -6 -3 -14 3 -18 5 -3 10 -22 10 -41 0 -19 5 -34
10 -34 6 0 10 -5 10 -11 0 -6 -7 -9 -15 -5 -9 3 -15 0 -15 -9 0 -8 -4 -15 -10
-15 -5 0 -10 -7 -10 -15 0 -8 -4 -15 -10 -15 -5 0 -7 15 -5 33 l5 32 -9 -29
c-6 -16 -8 -43 -5 -60 2 -17 -5 1 -15 39 -11 39 -27 91 -36 117 -8 25 -12 54
-8 64 4 10 2 15 -3 11 -6 -3 -23 24 -39 61 -88 209 -209 419 -321 562 -37 47
-126 144 -198 215 -187 186 -327 288 -549 401 -211 108 -311 146 -507 198
-189 49 -318 70 -352 57 -50 -19 -47 -105 4 -115 13 -2 55 -9 93 -16 462 -78
902 -300 1220 -615 113 -112 155 -162 246 -299 133 -197 307 -575 266 -576 -7
0 -5 -5 4 -10 22 -13 58 -142 41 -148 -7 -2 -13 -13 -13 -25 -1 -18 -2 -19 -6
-4 -3 10 0 23 5 30 5 7 7 27 5 45 -5 29 -7 31 -18 15 -7 -10 -10 -20 -6 -23 4
-3 6 -23 3 -45 -5 -36 -6 -38 -13 -15 -6 19 -7 14 -6 -20 2 -44 1 -46 -40 -65
-28 -13 -42 -27 -43 -39 0 -28 -48 -124 -67 -134 -10 -6 -16 -22 -16 -43 0
-19 -2 -26 -4 -16 -6 25 -23 21 -24 -5 -1 -18 -3 -15 -10 10 -6 18 -16 35 -24
39 -8 3 -15 17 -15 32 0 68 -57 304 -107 441 -140 388 -436 713 -831 913 -390
199 -856 255 -1338 162 -371 -72 -681 -240 -950 -517 -201 -206 -311 -406
-395 -717 -94 -348 -85 -826 22 -1154 57 -175 165 -377 279 -523 120 -153 153
-194 159 -194 3 -1 17 -9 29 -20 23 -19 38 -70 21 -70 -5 0 -9 10 -10 23 0 12
-3 16 -6 10 -7 -19 -21 -16 -19 3 0 11 -7 18 -21 19 -18 1 -24 -5 -29 -31 -3
-19 -16 -44 -28 -56 -34 -36 -63 -101 -48 -106 8 -2 5 -10 -10 -23 -20 -16
-21 -20 -8 -29 9 -6 10 -10 3 -10 -19 0 -188 166 -259 254 -54 67 -152 206
-212 301 -61 98 -159 331 -201 480 -43 157 -50 193 -66 345 -32 294 -13 573
56 827 94 350 306 714 564 966 351 343 778 553 1287 632 58 9 77 61 37 104
-19 21 -28 22 -78 16 -112 -13 -359 -72 -483 -116 -170 -60 -451 -210 -600
-321 -230 -171 -387 -338 -556 -589 -146 -218 -267 -497 -325 -749 -69 -296
-75 -643 -17 -955 39 -211 137 -475 246 -666 196 -343 449 -616 769 -830 136
-90 356 -203 493 -252 108 -39 328 -97 447 -118 39 -7 77 -18 85 -26 12 -11
12 -13 0 -14 -10 0 -8 -4 5 -9 l20 -9 -20 -1 c-19 -1 -19 -1 -2 -14 18 -14 17
-14 -2 -21 -44 -14 -315 39 -476 92 -395 129 -704 320 -1000 618 -395 396
-617 831 -702 1375 -14 88 -18 171 -17 350 0 212 3 248 27 371 65 333 177 618
342 874 256 397 544 659 965 879 235 122 433 187 717 237 236 41 441 45 702
13z m82 -719 c209 -32 466 -136 669 -273 369 -248 588 -582 681 -1038 31 -152
38 -478 14 -649 -40 -296 -120 -509 -279 -744 -112 -166 -292 -342 -481 -468
-217 -145 -526 -257 -787 -284 -424 -45 -868 65 -1224 303 -145 96 -363 312
-453 448 -124 188 -210 401 -253 625 -20 106 -23 151 -23 390 1 255 2 277 27
396 37 173 78 293 148 434 209 423 680 772 1161 859 111 20 667 21 800 1z
m1929 -898 c0 -5 -4 -5 -10 -2 -5 3 -10 14 -10 23 0 15 2 15 10 2 5 -8 10 -19
10 -23z m60 -200 c0 -20 0 -20 -15 -1 -19 25 -19 35 0 28 8 -4 15 -16 15 -27z
m-21 -61 l-2 -31 -4 30 c-5 31 -23 60 -23 36 0 -7 -4 -9 -10 -6 -6 4 -5 11 3
20 10 12 14 11 25 -3 6 -8 11 -30 11 -46z m-22 -18 c-3 -7 -5 -2 -5 12 0 14 2
19 5 13 2 -7 2 -19 0 -25z m-20 -10 c-3 -7 -5 -2 -5 12 0 14 2 19 5 13 2 -7 2
-19 0 -25z m-160 -40 c-3 -7 -5 -2 -5 12 0 14 2 19 5 13 2 -7 2 -19 0 -25z
m176 -71 c-6 -20 -7 -20 -14 8 -4 17 -7 41 -7 55 0 23 1 22 14 -8 9 -20 12
-43 7 -55z m-466 -229 c-3 -8 -6 -5 -6 6 -1 11 2 17 5 13 3 -3 4 -12 1 -19z
m10 -50 c-3 -8 -6 -5 -6 6 -1 11 2 17 5 13 3 -3 4 -12 1 -19z m450 -515 c-3
-10 -5 -4 -5 12 0 17 2 24 5 18 2 -7 2 -21 0 -30z m-20 -105 c-3 -8 -6 -5 -6
6 -1 11 2 17 5 13 3 -3 4 -12 1 -19z m-230 -710 c-3 -8 -6 -5 -6 6 -1 11 2 17
5 13 3 -3 4 -12 1 -19z m-17 -36 c-8 -4 -16 -18 -17 -32 l-3 -25 21 25 21 25
-18 -30 c-9 -16 -25 -36 -33 -43 -13 -11 -13 -12 -1 -6 8 4 2 -8 -15 -27 -16
-19 -33 -35 -37 -37 -5 -2 -8 -8 -8 -14 0 -5 -6 -15 -12 -23 -7 -7 -22 -25
-33 -41 -112 -159 -376 -402 -585 -539 -309 -203 -684 -346 -997 -381 -54 -6
-63 -4 -63 10 0 9 4 16 10 16 5 0 7 7 4 15 -4 8 -1 15 6 15 6 0 8 5 4 12 -5 7
-2 9 9 5 9 -3 18 0 21 9 3 8 17 14 32 14 41 0 268 57 384 97 131 44 346 146
465 220 86 54 245 161 255 173 3 3 37 32 75 65 39 33 101 89 138 125 38 36 72
65 75 65 4 0 6 4 4 9 -2 5 1 12 5 15 13 9 123 140 158 188 16 23 33 39 37 37
3 -2 15 7 26 20 13 17 22 22 29 15 8 -8 13 -7 17 0 4 6 2 11 -4 11 -6 0 -8 5
-5 10 3 6 16 10 28 9 16 0 18 -2 7 -7z m-3275 -172 c10 -11 13 -20 7 -20 -6 0
-16 9 -22 20 -6 11 -9 20 -7 20 2 0 12 -9 22 -20z m-161 -255 c21 -19 34 -35
30 -35 -13 1 -91 70 -79 70 6 0 27 -16 49 -35z m91 -73 c-6 -7 -45 19 -45 29
0 5 11 2 24 -8 13 -10 23 -19 21 -21z"/>
<path d="M4774 3393 c-5 -28 -3 -39 11 -49 10 -8 15 -20 11 -29 -3 -9 -2 -13
3 -10 5 3 11 -3 13 -12 3 -15 5 -14 10 5 3 12 2 20 -2 17 -9 -5 -21 40 -24 90
-2 37 -14 31 -22 -12z"/>
<path d="M4812 3395 c0 -11 3 -29 8 -40 11 -25 11 1 0 35 -6 20 -8 21 -8 5z"/>
<path d="M4877 3243 c-4 -3 -7 -11 -7 -17 0 -6 5 -5 12 2 6 6 9 14 7 17 -3 3
-9 2 -12 -2z"/>
<path d="M4870 3200 c-13 -8 -12 -10 3 -10 9 0 17 5 17 10 0 12 -1 12 -20 0z"/>
<path d="M1026 987 c3 -10 9 -15 12 -12 3 3 0 11 -7 18 -10 9 -11 8 -5 -6z"/>
<path d="M1073 945 c7 -7 18 -10 24 -8 21 8 15 18 -11 19 -20 2 -22 -1 -13
-11z"/>
<path d="M2235 3930 c-94 -4 -138 -10 -160 -22 -40 -22 -91 -76 -107 -113 -10
-24 -13 -268 -16 -1185 -2 -635 0 -1174 3 -1197 l6 -43 72 0 73 0 -1 1163 c0
970 2 1167 14 1195 26 61 31 62 441 62 l372 0 29 -29 29 -29 0 -1181 0 -1181
75 0 75 0 0 1198 c0 1136 -1 1199 -19 1237 -21 48 -76 99 -123 114 -37 12
-545 19 -763 11z"/>
<path d="M2260 3545 l0 -65 -52 -1 c-29 -1 -44 -3 -33 -6 71 -16 84 -24 87
-56 3 -32 3 -32 65 -35 l62 -3 8 43 9 43 144 0 145 0 3 -37 3 -38 70 0 69 0 0
110 0 110 -290 0 -290 0 0 -65z"/>
<path d="M1582 3449 c-44 -13 -108 -79 -121 -126 -14 -50 -15 -1750 -1 -1811
18 -78 53 -136 126 -210 84 -84 165 -126 271 -142 87 -12 1248 -13 1367 0 113
12 212 57 292 132 66 62 93 102 122 180 21 56 21 68 24 950 l3 893 -21 40
c-41 76 -95 104 -206 105 l-67 0 -6 -33 c-4 -18 -5 -49 -3 -68 3 -34 4 -34 61
-40 101 -11 92 71 95 -842 3 -830 -1 -924 -37 -995 -29 -57 -122 -137 -186
-161 -54 -20 -73 -21 -733 -21 -675 0 -677 0 -742 22 -51 18 -78 35 -127 83
-99 99 -93 32 -93 1017 l0 849 25 24 c18 19 35 25 70 25 l45 0 0 70 0 70 -62
-1 c-35 0 -78 -5 -96 -10z"/>
<path d="M1662 2978 l3 -73 110 0 110 0 3 73 3 72 -116 0 -116 0 3 -72z"/>
<path d="M2252 2978 l3 -73 130 0 130 0 3 73 3 72 -136 0 -136 0 3 -72z"/>
<path d="M2622 2978 l3 -73 140 0 140 0 3 73 3 72 -146 0 -146 0 3 -72z"/>
<path d="M3236 3025 c-4 -14 -4 -48 0 -75 l7 -50 108 0 108 0 6 33 c4 18 5 51
3 72 l-3 40 -111 3 -112 3 -6 -26z"/>
<path d="M2746 2546 c-3 -13 -3 -52 0 -85 l7 -61 88 0 89 0 0 85 0 85 -89 0
c-85 0 -89 -1 -95 -24z"/>
<path d="M2425 2252 c-3 -3 -5 -41 -5 -84 l0 -78 100 0 100 0 0 79 c0 65 -3
80 -17 85 -20 8 -170 6 -178 -2z"/>
<path d="M2150 2170 l0 -80 100 0 100 0 0 58 c0 31 3 67 6 80 6 22 5 22 -100
22 l-106 0 0 -80z"/>
<path d="M2690 2170 l0 -80 115 0 115 0 0 80 0 80 -115 0 -115 0 0 -80z"/>
<path d="M2360 1805 l0 -75 159 0 158 0 6 61 c3 34 3 68 0 75 -4 11 -39 14
-164 14 l-159 0 0 -75z"/>
</g>
</svg>
